<?xml version="1.0" encoding="UTF-8" standalone="no"?>
<svg
   xmlns:dc="http://purl.org/dc/elements/1.1/"
   xmlns:cc="http://creativecommons.org/ns#"
   xmlns:rdf="http://www.w3.org/1999/02/22-rdf-syntax-ns#"
   xmlns:svg="http://www.w3.org/2000/svg"
   xmlns="http://www.w3.org/2000/svg"
   xmlns:sodipodi="http://sodipodi.sourceforge.net/DTD/sodipodi-0.dtd"
   xmlns:inkscape="http://www.inkscape.org/namespaces/inkscape"
   width="150mm"
   height="150mm"
   viewBox="0 0 150 150"
   version="1.1"
   id="svg8"
   inkscape:version="1.0.2-2 (e86c870879, 2021-01-15)"
   sodipodi:docname="LogoTioDu.svg"
   inkscape:export-filename="C:\Users\jtmc\Documents\FATEC\Projetos de Tecnologia da Informacao I-A714-N-GE\LogoTioDu2.png"
   inkscape:export-xdpi="157"
   inkscape:export-ydpi="157">
  <defs
     id="defs2">
    <rect
       x="29.666918"
       y="110.11505"
       width="83.655362"
       height="22.183371"
       id="rect142" />
    <filter
       inkscape:collect="always"
       style="color-interpolation-filters:sRGB;"
       id="filter3545"
       x="-3.9210108e-06"
       width="1.0000078"
       y="-1.4472048e-05"
       height="1.0000289"
       inkscape:label="Convoluted Bump"
       inkscape:menu="Bumps"
       inkscape:menu-tooltip="Convoluted emboss effect">
      <feGaussianBlur
         inkscape:collect="always"
         stdDeviation="5.6159409e-05"
         id="feGaussianBlur3547"
         result="fbSourceGraphic" />
      <feColorMatrix
         result="fbSourceGraphicAlpha"
         in="fbSourceGraphic"
         values="0 0 0 -1 0 0 0 0 -1 0 0 0 0 -1 0 0 0 0 1 0"
         id="feColorMatrix5998" />
      <feColorMatrix
         id="feColorMatrix6000"
         result="result2"
         type="luminanceToAlpha"
         in="fbSourceGraphic" />
      <feSpecularLighting
         id="feSpecularLighting6002"
         specularConstant="0.5"
         surfaceScale="-15"
         specularExponent="10"
         result="result10">
        <feDistantLight
           id="feDistantLight6004"
           elevation="20"
           azimuth="225" />
      </feSpecularLighting>
      <feDiffuseLighting
         id="feDiffuseLighting6006"
         diffuseConstant="0.5"
         surfaceScale="15"
         result="result11">
        <feDistantLight
           id="feDistantLight6008"
           azimuth="225"
           elevation="20" />
      </feDiffuseLighting>
      <feComposite
         in2="result10"
         id="feComposite6010"
         result="result11"
         operator="arithmetic"
         k2="0.5"
         k3="0.5" />
      <feComposite
         in2="fbSourceGraphic"
         id="feComposite6012"
         in="result11"
         result="result9"
         operator="arithmetic"
         k2="1"
         k3="1" />
      <feComposite
         in2="fbSourceGraphic"
         id="feComposite6014"
         operator="in"
         in="result9"
         result="fbSourceGraphic" />
      <feColorMatrix
         result="fbSourceGraphicAlpha"
         in="fbSourceGraphic"
         values="0 0 0 -1 0 0 0 0 -1 0 0 0 0 -1 0 0 0 0 1 0"
         id="feColorMatrix6016" />
      <feConvolveMatrix
         id="feConvolveMatrix6018"
         in="fbSourceGraphic"
         bias="0"
         divisor="0"
         targetX="1"
         targetY="1"
         result="result10"
         kernelMatrix="0 100 0 100 -401 100 0 100 0 "
         order="3 3" />
      <feColorMatrix
         id="feColorMatrix6020"
         values="0 0 0 0 0 0 0 0 0 0 0 0 0 0 0 -0.21 -0.72 -0.07 1 0 "
         in="result10"
         type="matrix"
         result="result2" />
      <feGaussianBlur
         id="feGaussianBlur6022"
         result="result11"
         stdDeviation="0.01" />
      <feDiffuseLighting
         id="feDiffuseLighting6024"
         surfaceScale="15"
         result="result1"
         diffuseConstant="0.5"
         in="result11"
         lighting-color="#ffffff">
        <feDistantLight
           id="feDistantLight6026"
           elevation="10"
           azimuth="225" />
      </feDiffuseLighting>
      <feGaussianBlur
         id="feGaussianBlur6028"
         result="result12"
         in="fbSourceGraphic"
         stdDeviation="0.01" />
      <feComposite
         in2="result12"
         id="feComposite6030"
         in="result1"
         k3="0.8"
         k2="1"
         operator="arithmetic"
         result="result9" />
      <feComposite
         in2="fbSourceGraphic"
         id="feComposite6032"
         in="result9"
         operator="in"
         result="result7" />
    </filter>
    <filter
       y="-0.052225153"
       height="1.1044503"
       inkscape:menu-tooltip="Darkens the edge with an inner blur and adds a flexible glow"
       inkscape:menu="Shadows and Glows"
       inkscape:label="Dark and Glow"
       style="color-interpolation-filters:sRGB;"
       id="filter5302"
       x="-0.052225153"
       width="1.1044503">
      <feGaussianBlur
         stdDeviation="3.2315927"
         result="result6"
         id="feGaussianBlur5292" />
      <feComposite
         result="result8"
         in="SourceGraphic"
         operator="atop"
         in2="result6"
         id="feComposite5294" />
      <feComposite
         result="result9"
         operator="over"
         in2="SourceAlpha"
         in="result8"
         id="feComposite5296" />
      <feColorMatrix
         values="1 0 0 0 0 0 1 0 0 0 0 0 1 0 0 0 0 0 1 0 "
         result="result10"
         id="feColorMatrix5298" />
      <feBlend
         in="result10"
         mode="normal"
         in2="result6"
         id="feBlend5300" />
    </filter>
    <filter
       inkscape:menu="Bumps"
       inkscape:menu-tooltip="Convoluted emboss effect"
       style="color-interpolation-filters:sRGB;"
       inkscape:label="Convoluted Bump"
       id="filter6050"
       x="-0.031095794"
       width="1.0621916"
       y="-0.53412747"
       height="2.0682549">
      <feConvolveMatrix
         in="SourceGraphic"
         bias="0"
         divisor="0"
         targetX="1"
         targetY="1"
         result="result10"
         kernelMatrix="0 100 0 100 -401 100 0 100 0 "
         order="3 3"
         id="feConvolveMatrix6034" />
      <feColorMatrix
         values="0 0 0 0 0 0 0 0 0 0 0 0 0 0 0 -0.21 -0.72 -0.07 1 0 "
         in="result10"
         type="matrix"
         result="result2"
         id="feColorMatrix6036" />
      <feGaussianBlur
         result="result11"
         stdDeviation="1.8636319"
         id="feGaussianBlur6038" />
      <feDiffuseLighting
         surfaceScale="15"
         result="result1"
         diffuseConstant="0.5"
         in="result11"
         lighting-color="#ffffff"
         id="feDiffuseLighting6042">
        <feDistantLight
           elevation="10"
           azimuth="225"
           id="feDistantLight6040" />
      </feDiffuseLighting>
      <feGaussianBlur
         result="result12"
         in="SourceGraphic"
         stdDeviation="0.01"
         id="feGaussianBlur6044" />
      <feComposite
         in2="result12"
         in="result1"
         k3="0.8"
         k2="1"
         operator="arithmetic"
         result="result9"
         id="feComposite6046" />
      <feComposite
         in2="SourceGraphic"
         in="result9"
         operator="in"
         result="result7"
         id="feComposite6048" />
    </filter>
    <filter
       inkscape:menu="Bumps"
       inkscape:menu-tooltip="Convoluted emboss effect"
       style="color-interpolation-filters:sRGB;"
       inkscape:label="Convoluted Bump"
       id="filter6068"
       x="-0.030516406"
       width="1.0610328"
       y="-0.031715339"
       height="1.0634307">
      <feConvolveMatrix
         in="SourceGraphic"
         bias="0"
         divisor="0"
         targetX="1"
         targetY="1"
         result="result10"
         kernelMatrix="0 100 0 100 -401 100 0 100 0 "
         order="3 3"
         id="feConvolveMatrix6052" />
      <feColorMatrix
         values="0 0 0 0 0 0 0 0 0 0 0 0 0 0 0 -0.21 -0.72 -0.07 1 0 "
         in="result10"
         type="matrix"
         result="result2"
         id="feColorMatrix6054" />
      <feGaussianBlur
         result="result11"
         stdDeviation="0.73566485"
         id="feGaussianBlur6056" />
      <feDiffuseLighting
         surfaceScale="15"
         result="result1"
         diffuseConstant="0.5"
         in="result11"
         lighting-color="#ffffff"
         id="feDiffuseLighting6060">
        <feDistantLight
           elevation="10"
           azimuth="225"
           id="feDistantLight6058" />
      </feDiffuseLighting>
      <feGaussianBlur
         result="result12"
         in="SourceGraphic"
         stdDeviation="0.01"
         id="feGaussianBlur6062" />
      <feComposite
         in2="result12"
         in="result1"
         k3="0.8"
         k2="1"
         operator="arithmetic"
         result="result9"
         id="feComposite6064" />
      <feComposite
         in2="SourceGraphic"
         in="result9"
         operator="in"
         result="result7"
         id="feComposite6066" />
    </filter>
    <filter
       inkscape:menu="Bumps"
       inkscape:menu-tooltip="Convoluted emboss effect"
       style="color-interpolation-filters:sRGB;"
       inkscape:label="Convoluted Bump"
       id="filter6138"
       x="-0.079883255"
       width="1.1597665"
       y="-0.096422668"
       height="1.1928453">
      <feConvolveMatrix
         in="SourceGraphic"
         bias="0"
         divisor="0"
         targetX="1"
         targetY="1"
         result="result10"
         kernelMatrix="0 100 0 100 -401 100 0 100 0 "
         order="3 3"
         id="feConvolveMatrix6122" />
      <feColorMatrix
         values="0 0 0 0 0 0 0 0 0 0 0 0 0 0 0 -0.21 -0.72 -0.07 1 0 "
         in="result10"
         type="matrix"
         result="result2"
         id="feColorMatrix6124" />
      <feGaussianBlur
         result="result11"
         stdDeviation="1.63832"
         id="feGaussianBlur6126" />
      <feDiffuseLighting
         surfaceScale="15"
         result="result1"
         diffuseConstant="0.5"
         in="result11"
         lighting-color="#ffffff"
         id="feDiffuseLighting6130">
        <feDistantLight
           elevation="10"
           azimuth="225"
           id="feDistantLight6128" />
      </feDiffuseLighting>
      <feGaussianBlur
         result="result12"
         in="SourceGraphic"
         stdDeviation="0.01"
         id="feGaussianBlur6132" />
      <feComposite
         in2="result12"
         in="result1"
         k3="0.8"
         k2="1"
         operator="arithmetic"
         result="result9"
         id="feComposite6134" />
      <feComposite
         in2="SourceGraphic"
         in="result9"
         operator="in"
         result="result7"
         id="feComposite6136" />
    </filter>
    <filter
       style="color-interpolation-filters:sRGB;"
       inkscape:label="Bump"
       id="filter2408">
      <feGaussianBlur
         in="SourceGraphic"
         stdDeviation="1.70918"
         result="blur1"
         id="feGaussianBlur2386" />
      <feColorMatrix
         in="BackgroundImage"
         values="1 0 0 0 0 0 1 0 0 0 0 0 1 0 0 -15.9443 -11.6099 -1.70279 1 0 "
         result="colormatrix1"
         id="feColorMatrix2388" />
      <feColorMatrix
         in="colormatrix1"
         type="luminanceToAlpha"
         result="colormatrix2"
         id="feColorMatrix2390" />
      <feComposite
         in2="blur1"
         operator="arithmetic"
         k2="1"
         k3="-50"
         result="composite1"
         id="feComposite2392" />
      <feGaussianBlur
         in="composite1"
         stdDeviation="1.82636"
         result="blur2"
         id="feGaussianBlur2394" />
      <feSpecularLighting
         lighting-color="rgb(255,255,255)"
         surfaceScale="50"
         specularConstant="1.6763"
         specularExponent="35"
         result="lighting"
         id="feSpecularLighting2398">
        <feDistantLight
           azimuth="134"
           elevation="39"
           id="feDistantLight2396" />
      </feSpecularLighting>
      <feFlood
         flood-color="rgb(197,41,41)"
         flood-opacity="1"
         result="flood"
         id="feFlood2400" />
      <feComposite
         in="lighting"
         in2="blur1"
         operator="arithmetic"
         k3="1"
         k2="1"
         result="composite2"
         id="feComposite2402" />
      <feBlend
         in2="SourceGraphic"
         mode="normal"
         result="blend"
         id="feBlend2404" />
      <feComposite
         in="blend"
         in2="SourceGraphic"
         operator="in"
         k2="1"
         result="fbSourceGraphic"
         id="feComposite2406" />
      <feColorMatrix
         result="fbSourceGraphicAlpha"
         in="fbSourceGraphic"
         values="0 0 0 -1 0 0 0 0 -1 0 0 0 0 -1 0 0 0 0 1 0"
         id="feColorMatrix2410" />
      <feGaussianBlur
         id="feGaussianBlur2412"
         in="fbSourceGraphic"
         stdDeviation="1.70918"
         result="blur1" />
      <feColorMatrix
         id="feColorMatrix2414"
         in="BackgroundImage"
         values="1 0 0 0 0 0 1 0 0 0 0 0 1 0 0 -15.9443 -11.6099 -1.70279 1 0 "
         result="colormatrix1" />
      <feColorMatrix
         id="feColorMatrix2416"
         in="colormatrix1"
         type="luminanceToAlpha"
         result="colormatrix2" />
      <feComposite
         in2="blur1"
         id="feComposite2418"
         operator="arithmetic"
         k2="1"
         k3="-50"
         result="composite1" />
      <feGaussianBlur
         id="feGaussianBlur2420"
         in="composite1"
         stdDeviation="1.82636"
         result="blur2" />
      <feSpecularLighting
         id="feSpecularLighting2422"
         lighting-color="rgb(255,255,255)"
         surfaceScale="50"
         specularConstant="1.6763"
         specularExponent="35"
         result="lighting">
        <feDistantLight
           id="feDistantLight2424"
           azimuth="134"
           elevation="39" />
      </feSpecularLighting>
      <feFlood
         id="feFlood2426"
         flood-color="rgb(197,41,41)"
         flood-opacity="1"
         result="flood" />
      <feComposite
         in2="blur1"
         id="feComposite2428"
         in="lighting"
         operator="arithmetic"
         k3="1"
         k2="1"
         result="composite2" />
      <feBlend
         in2="fbSourceGraphic"
         id="feBlend2430"
         mode="normal"
         result="blend" />
      <feComposite
         in2="fbSourceGraphic"
         id="feComposite2432"
         in="blend"
         operator="in"
         k2="1"
         result="composite3" />
    </filter>
  </defs>
  <sodipodi:namedview
     id="base"
     pagecolor="#ffffff"
     bordercolor="#666666"
     borderopacity="1.0"
     inkscape:pageopacity="0.0"
     inkscape:pageshadow="2"
     inkscape:zoom="0.98994949"
     inkscape:cx="202.32647"
     inkscape:cy="203.60735"
     inkscape:document-units="mm"
     inkscape:current-layer="layer1"
     inkscape:document-rotation="0"
     showgrid="false"
     inkscape:snap-bbox="true"
     inkscape:snap-nodes="true"
     inkscape:snap-text-baseline="true"
     inkscape:window-width="1920"
     inkscape:window-height="1001"
     inkscape:window-x="-9"
     inkscape:window-y="-9"
     inkscape:window-maximized="1" />
  <metadata
     id="metadata5">
    <rdf:RDF>
      <cc:Work
         rdf:about="">
        <dc:format>image/svg+xml</dc:format>
        <dc:type
           rdf:resource="http://purl.org/dc/dcmitype/StillImage" />
        <dc:title />
      </cc:Work>
    </rdf:RDF>
  </metadata>
  <g
     inkscape:groupmode="layer"
     id="layer2"
     inkscape:label="Layer 2" />
  <g
     inkscape:label="Layer 1"
     inkscape:groupmode="layer"
     id="layer1">
    <a
       id="a965" />
    <circle
       style="fill:#ffff00;stroke-width:0.423;stroke-linecap:round;stroke-linejoin:round;stroke-miterlimit:3.70000005;paint-order:markers fill stroke;stroke:#000000;stroke-opacity:1;stroke-dasharray:none;opacity:0.7755102;filter:url(#filter2408)"
       id="path1195"
       cx="75.462852"
       cy="74.836258"
       r="74.253708"
       inkscape:export-xdpi="157"
       inkscape:export-ydpi="157" />
    <path
       style="fill:#ffffff;stroke:none;stroke-width:0.478367;stroke-opacity:1"
       d="m 50.775824,33.016289 -0.124036,44.121168 h 53.120542 l 1.48843,-43.746448 c 1.35816,1.061846 3.05748,2.482577 5.36304,2.750247 2.72333,0.316171 5.13159,-2.15147 3.56637,-6.404283 C 112.57,25.335794 102.35989,21.691569 98.555131,19.264117 93.825505,16.246401 89.065052,13.279536 84.326415,10.277162 82.390833,9.0507951 79.9914,6.3651473 77.686348,6.0182452 c -2.838914,-0.4272839 -6.70609,3.6935471 -9.01152,5.1173938 -6.688967,4.131135 -13.220517,8.525801 -19.920203,12.639036 -2.483716,1.524876 -6.634993,3.223012 -7.838219,6.087205 -1.175054,2.79703 0.937142,6.728571 3.919858,6.402222 2.140474,-0.234195 4.299986,-1.965962 5.93956,-3.247813 z"
       id="path3286"
       sodipodi:nodetypes="ccccsccscsscsc" />
    <a
       id="a120"
       transform="matrix(1.3515015,0,0,1.3515015,-32.855762,-17.841691)"
       style="stroke:none;stroke-opacity:1;filter:url(#filter6068)">
      <g
         id="g124"
         style="stroke:none;stroke-opacity:1">
        <path
           style="fill:#000000;stroke:none;stroke-width:0.352778;stroke-opacity:1"
           d="m 60.361336,71.482234 c -0.13086,-0.13086 -0.23792,-7.13407 -0.23792,-15.5627 0,-14.452849 -0.0351,-15.310887 -0.61736,-15.080633 -2.38696,0.943961 -4.91449,0.258985 -6.07637,-1.646735 -0.96196,-1.577806 -0.95589,-4.117242 0.0128,-5.348717 C 54.099066,33.008741 80.97876,15.9758 81.63943,15.9758 c 0.63708,0 27.07297,16.69321 27.96108,17.656304 0.7742,0.839568 0.96988,1.38936 0.96882,2.722177 -0.003,3.779502 -3.21081,5.900141 -6.78591,4.486053 -0.57652,-0.228033 -0.61919,0.692915 -0.70556,15.22762 l -0.0919,15.47034 -21.19334,0.0909 c -11.656334,0.05 -21.300394,-0.0162 -21.431244,-0.14699 z m 40.952594,-16.91635 -0.0919,-15.384919 -9.78958,-6.309663 -9.78958,-6.309663 -9.78959,6.309663 -9.789584,6.309663 -0.0919,15.384919 -0.0919,15.38491 H 81.64287 101.40584 Z M 69.472026,32.327864 C 75.68092,28.323268 81.03258,24.973278 81.36462,24.88344 c 0.37226,-0.10072 4.97067,2.649469 11.99444,7.173562 6.26491,4.035297 11.80908,7.401297 12.32037,7.48 1.26792,0.195168 2.39041,-0.475079 2.92503,-1.746548 0.56265,-1.338155 0.34434,-2.517436 -0.62726,-3.388305 -1.04937,-0.94058 -25.865,-16.309682 -26.33434,-16.309682 -0.55072,0 -25.414064,15.460094 -26.440334,16.440671 -1.808,1.727499 -0.46703,5.081183 2.03015,5.07729 0.63518,-9.91e-4 4.69511,-2.416698 12.23935,-7.282564 z"
           id="path38"
           sodipodi:nodetypes="cscssssssccscccccccccccccssssssssss" />
      </g>
    </a>
    <path
       sodipodi:type="spiral"
       style="fill:none;fill-opacity:1;fill-rule:nonzero;stroke:#000000;stroke-width:2.965;stroke-linecap:round;stroke-linejoin:round;stroke-miterlimit:4;stroke-dasharray:none;stroke-dashoffset:0;stroke-opacity:1;paint-order:markers fill stroke;filter:url(#filter6050)"
       id="path154"
       sodipodi:cx="-110.64958"
       sodipodi:cy="-2.4054255"
       sodipodi:expansion="0.76999998"
       sodipodi:revolution="0.050000001"
       sodipodi:radius="68.037811"
       sodipodi:argument="0.3654896"
       sodipodi:t0="0.039000001"
       transform="matrix(1.4766955,-0.48871791,1.423863,0.42758701,167.05579,43.126492)"
       d="M -105.44819,-0.34153131 C -85.569969,7.9145095 -68.226968,21.314261 -57.730217,40.357697" />
    <text
       xml:space="preserve"
       id="text140"
       style="font-style:normal;font-weight:normal;font-size:10.5833px;line-height:1.25;font-family:sans-serif;white-space:pre;shape-inside:url(#rect142);fill:#000000;fill-opacity:1;stroke:none;stroke-width:0.0266053;stroke-miterlimit:4;stroke-dasharray:none;stroke-opacity:1;filter:url(#filter3545);"
       transform="matrix(3.1684781,0,0,3.1684781,-74.988971,-258.24981)"><tspan
         x="29.666016"
         y="119.7707"><tspan
           style="font-style:normal;font-variant:normal;font-weight:normal;font-stretch:normal;font-family:'Hitch Hike';-inkscape-font-specification:'Hitch Hike';fill:#000000;fill-opacity:1;stroke:none;stroke-width:0.0266053;stroke-miterlimit:4;stroke-dasharray:none;stroke-opacity:1">Tio Du Pets</tspan></tspan></text>
    <path
       style="fill:#ffff00;stroke:none;stroke-width:0.269131;stroke-opacity:1"
       d="m 62.814079,34.484637 c -7.396992,1.330193 -9.539174,8.012243 -8.615714,14.67113 1.274373,9.189128 7.452889,15.812995 15.346739,20.213622 2.164241,1.206558 5.768865,3.461745 8.34647,3.041005 10.488824,-1.712318 20.596401,-11.970579 22.450936,-22.178542 0.82064,-4.518004 0.74876,-10.131853 -3.06962,-13.362571 -4.422553,-3.742091 -11.274199,-3.182312 -15.341624,0.729419 -0.963073,0.926103 -3.330887,5.354655 -4.591689,5.354655 -1.233365,0 -2.957074,-3.680434 -3.780171,-4.557331 -2.786887,-2.969121 -6.647776,-4.648249 -10.745327,-3.911387 z"
       id="path3303-9" />
    <ellipse
       style="fill:#ffd5d5;stroke-width:4.73367;stroke-linecap:round;stroke-linejoin:round;stroke-miterlimit:3.7;paint-order:markers fill stroke"
       id="path1069"
       cx="73.211601"
       cy="49.939056"
       rx="2.2326469"
       ry="4.1241956" />
    <ellipse
       style="fill:#ffd5d5;stroke-width:4.73367;stroke-linecap:round;stroke-linejoin:round;stroke-miterlimit:3.7;paint-order:markers fill stroke"
       id="path1067"
       cx="38.580036"
       cy="78.670921"
       rx="1.8605392"
       ry="2.8838358"
       transform="rotate(-23.951983)" />
    <ellipse
       style="fill:#ffd5d5;stroke-width:4.73367;stroke-linecap:round;stroke-linejoin:round;stroke-miterlimit:3.7;paint-order:markers fill stroke"
       id="path1067-5"
       cx="98.893578"
       cy="33.041508"
       rx="1.8605392"
       ry="2.8838358"
       transform="rotate(14.243524)" />
    <ellipse
       style="fill:#ffd5d5;stroke-width:4.73367;stroke-linecap:round;stroke-linejoin:round;stroke-miterlimit:3.7;paint-order:markers fill stroke"
       id="path1069-9"
       cx="81.894119"
       cy="49.939056"
       rx="2.2326469"
       ry="4.1241956" />
    <circle
       style="fill:#ff8080;stroke-width:4.73367;stroke-linecap:round;stroke-linejoin:round;stroke-miterlimit:3.7;paint-order:markers fill stroke"
       id="path955"
       sodipodi:type="arc"
       sodipodi:cx="71.825645"
       sodipodi:cy="40.34222"
       sodipodi:rx="3.6617529"
       sodipodi:ry="2.9600999"
       sodipodi:start="0"
       sodipodi:end="0.0020548634"
       sodipodi:arc-type="slice"
       d="m 75.487398,40.34222 a 3.6617529,2.9600999 0 0 1 -7e-6,0.0061 l -3.661746,-0.0061 z" />
    <path
       style="fill:#ffd5d5;stroke-width:0.0328997"
       d="m 72.325018,66.496465 c -0.256462,-0.08404 -0.48019,-0.278819 -0.605696,-0.52747 -0.397989,-0.788412 -0.39002,-2.245774 0.01867,-3.423454 0.654667,-1.886242 2.100515,-3.551203 3.814415,-4.392451 1.466238,-0.719695 2.666419,-0.709769 4.179005,0.03453 2.0118,0.989978 3.42684,2.880995 3.831142,5.11982 0.0884,0.489619 0.144101,1.270037 0.118333,1.658533 -0.0427,0.643379 -0.172772,0.995967 -0.466575,1.264481 -0.261165,0.238694 -0.519449,0.315197 -1.048932,0.310694 -0.720315,-0.0053 -1.442866,-0.179762 -3.275782,-0.787213 -0.679781,-0.225288 -1.261373,-0.409607 -1.292427,-0.409607 -0.031,0 -0.521555,0.148415 -1.089992,0.329826 -2.093925,0.66823 -2.845656,0.85329 -3.553904,0.874917 -0.362321,0.01105 -0.458364,0.0026 -0.628296,-0.05265 z"
       id="path1024"
       sodipodi:nodetypes="ssssssssssssss" />
    <path
       style="fill:#000000;stroke:none;stroke-width:0.265287;stroke-opacity:1;filter:url(#filter6138)"
       d="M 74.73476,73.261064 C 66.500787,70.200725 59.049236,64.287922 55.97176,58.372622 52.51655,51.731269 51.837196,44.318695 54.247765,39.561673 c 2.794289,-5.514265 10.166077,-7.94229 15.878019,-5.2297 2.166358,1.028797 4.881823,3.393846 6.3042,5.490683 0.492762,0.726405 0.955614,1.320737 1.028565,1.320737 0.07294,0 0.535805,-0.594332 1.028566,-1.320737 1.422385,-2.096837 4.137842,-4.461886 6.304195,-5.490683 5.866545,-2.786007 13.337562,-0.187467 16.02014,5.572061 2.78042,5.969617 0.66509,16.345273 -4.584252,22.485649 -3.892493,4.553212 -10.18206,8.778786 -16.330551,10.971486 -2.391676,0.852936 -2.609035,0.848725 -5.161887,-0.100105 z m 4.896599,-1.496766 c 5.042957,-1.811837 9.853096,-4.892826 13.770609,-8.820318 3.047934,-3.055723 4.218204,-4.844255 5.540689,-8.467924 2.273623,-6.229862 2.034593,-12.276879 -0.623817,-15.781463 -1.913952,-2.523193 -5.569205,-4.059198 -9.164433,-3.851074 -3.913001,0.22652 -7.213668,2.460508 -10.014063,6.777808 -0.780798,1.203743 -1.534185,2.188623 -1.674191,2.188623 -0.140008,0 -0.905019,-0.987713 -1.70003,-2.19492 -2.875536,-4.366462 -6.094153,-6.545207 -10.003427,-6.771511 -3.595225,-0.208124 -7.250475,1.327881 -9.164441,3.851074 -3.261376,4.299492 -2.786256,12.595221 1.126086,19.661982 2.045195,3.694175 8.086483,8.908345 13.499952,11.651656 1.877321,0.951342 5.570762,2.416116 6.152124,2.439863 0.173687,0.0068 1.188418,-0.300617 2.254942,-0.683796 z m -8.638215,-4.616864 c -1.214195,-1.442994 -1.239358,-3.707911 -0.06919,-6.228263 1.074488,-2.314252 4.346731,-4.635528 6.534587,-4.635528 2.199364,0 5.606473,2.439336 6.578272,4.709757 1.106619,2.585371 1.062688,4.756972 -0.124784,6.168198 -0.585927,0.696351 -0.833377,0.789509 -2.096979,0.789509 -0.787956,0 -2.054444,-0.236262 -2.814413,-0.525027 -1.376888,-0.523177 -1.387741,-0.523177 -3.081589,0 -0.934911,0.288765 -2.273554,0.525027 -2.974752,0.525027 -1.093644,0 -1.371056,-0.114269 -1.951152,-0.803673 z m 4.80736,-1.365084 1.658045,-0.527375 1.711604,0.569582 c 3.417054,1.137122 4.281375,0.714509 4.014702,-1.962989 -0.270525,-2.716029 -2.133035,-4.998798 -4.70796,-5.770264 -3.380237,-1.012744 -7.67163,3.650499 -6.747569,7.332245 0.311025,1.239228 1.087897,1.307694 4.071178,0.358801 z m -9.1504,-5.723546 c -1.189485,-0.648234 -2.113673,-2.014733 -2.485107,-3.674474 -0.271666,-1.213932 -0.251331,-1.58118 0.144985,-2.618937 0.519382,-1.359968 1.027227,-1.731533 2.36663,-1.731533 1.872575,0 3.619177,2.415278 3.619177,5.004748 0,1.751847 -0.539746,2.81269 -1.623253,3.190401 -1.072189,0.373769 -1.015511,0.378538 -2.022432,-0.170205 z m 1.735614,-1.445816 c 0.48412,-0.484119 0.381593,-2.622419 -0.175743,-3.665105 -0.638398,-1.194342 -1.788013,-1.65769 -2.317228,-0.933948 -0.204671,0.279906 -0.369509,0.814397 -0.366306,1.187757 0.0085,0.98073 0.896741,2.792616 1.61622,3.296559 0.739198,0.517756 0.83152,0.526275 1.243057,0.114743 z m 17.688243,1.539746 c -1.009384,-0.439792 -1.45265,-1.397862 -1.45265,-3.139781 0,-2.642874 1.752195,-4.979093 3.734387,-4.979093 1.255849,0 1.942599,0.600406 2.388308,2.088056 0.605849,2.022107 -0.705536,5.114297 -2.537626,5.983683 -1.044401,0.4956 -1.100286,0.496833 -2.132419,0.04714 z m 1.992563,-1.972923 c 1.327055,-1.327063 1.718936,-4.054529 0.641924,-4.467817 -1.149851,-0.441237 -2.515824,1.370159 -2.543449,3.372838 -0.01408,1.025487 0.384577,1.846501 0.896792,1.846501 0.139269,0 0.591397,-0.338186 1.004733,-0.751522 z M 72.045276,54.822998 c -1.535838,-0.822655 -2.333382,-2.496688 -2.339895,-4.911439 -0.0085,-3.122173 1.429175,-5.305748 3.493149,-5.305748 2.09846,0 3.452504,2.028854 3.452504,5.173107 0,3.765632 -2.296694,6.280905 -4.605758,5.04408 z m 1.713942,-1.470565 c 1.291117,-0.690982 1.819289,-3.877857 0.973429,-5.873429 -1.169828,-2.759884 -3.465552,-1.237947 -3.469236,2.299914 -0.0015,1.560627 0.288638,2.45542 1.097238,3.382413 0.46811,0.53665 0.694978,0.567653 1.398569,0.191102 z m 7.015423,1.611784 c -1.533854,-0.634443 -2.522652,-2.696309 -2.514404,-5.243102 0.01,-3.087896 1.38068,-5.115304 3.458333,-5.115304 2.067595,0 3.503651,2.186529 3.484678,5.305748 -0.02169,3.55243 -2.159271,5.991316 -4.428607,5.052658 z m 2.148327,-2.326429 c 1.046397,-1.556668 1.03924,-4.188464 -0.01582,-5.798612 -0.345915,-0.527931 -0.623004,-0.65518 -1.286707,-0.590907 -2.080285,0.201452 -2.588393,4.830648 -0.760081,6.92474 0.586791,0.672087 1.391342,0.463312 2.062558,-0.535221 z"
       id="path118-5" />
  </g>
</svg>
